<svg width="48" height="48" viewBox="0 0 48 48" fill="none" xmlns="http://www.w3.org/2000/svg">
<rect width="48" height="48" fill="white"/>
<path d="M38 35C38 35.2526 37.8473 35.6524 37.2023 36.1608C36.5685 36.6603 35.5894 37.1539 34.2904 37.5869C31.7028 38.4494 28.0646 39 24 39C19.9354 39 16.2972 38.4494 13.7096 37.5869C12.4106 37.1539 11.4315 36.6603 10.7977 36.1608C10.1527 35.6524 10 35.2526 10 35C10 34.7474 10.1527 34.3476 10.7977 33.8392C11.4315 33.3397 12.4106 32.8461 13.7096 32.4131C16.2972 31.5506 19.9354 31 24 31C28.0646 31 31.7028 31.5506 34.2904 32.4131C35.5894 32.8461 36.5685 33.3397 37.2023 33.8392C37.8473 34.3476 38 34.7474 38 35Z" stroke="#152C5B" stroke-width="2"/>
<path d="M33 11.939C33 12.9241 32.7397 14.8274 32.2362 17.183C31.7376 19.5159 31.0159 22.2213 30.1263 24.786C29.233 27.3615 28.1876 29.7444 27.0569 31.4639C26.4915 32.3237 25.9308 32.9772 25.3918 33.4072C24.8556 33.8348 24.3952 34 24 34C23.6048 34 23.1444 33.8348 22.6082 33.4072C22.0692 32.9772 21.5085 32.3237 20.9431 31.4639C19.8124 29.7444 18.767 27.3615 17.8737 24.786C16.9841 22.2213 16.2624 19.5159 15.7638 17.183C15.2603 14.8274 15 12.9241 15 11.939C15 8.3096 18.8019 5 24 5C29.1981 5 33 8.3096 33 11.939Z" fill="white" stroke="#152C5B" stroke-width="2"/>
<circle cx="24" cy="15" r="4" stroke="#FF498B" stroke-width="2"/>
</svg>
