<svg width="48" height="48" viewBox="0 0 48 48" fill="none" xmlns="http://www.w3.org/2000/svg">
<rect width="48" height="48" fill="white"/>
<rect x="15" y="15" width="18" height="25" rx="4" stroke="#152C5B" stroke-width="2"/>
<path d="M19 6C19 4.89543 19.8954 4 21 4H27C28.1046 4 29 4.89543 29 6V15H19V6Z" stroke="#152C5B" stroke-width="2"/>
<path d="M20 22C20 21.4477 19.5523 21 19 21C18.4477 21 18 21.4477 18 22H20ZM18 36C18 36.5523 18.4477 37 19 37C19.5523 37 20 36.5523 20 36H18ZM18 22V36H20V22H18Z" fill="#FF498B"/>
<path d="M30 22C30 21.4477 29.5523 21 29 21C28.4477 21 28 21.4477 28 22H30ZM28 36C28 36.5523 28.4477 37 29 37C29.5523 37 30 36.5523 30 36H28ZM28 22V36H30V22H28Z" fill="#FF498B"/>
<path d="M25 25C25 24.4477 24.5523 24 24 24C23.4477 24 23 24.4477 23 25H25ZM23 35C23 35.5523 23.4477 36 24 36C24.5523 36 25 35.5523 25 35H23ZM23 25V35H25V25H23Z" fill="#FF498B"/>
</svg>
