<svg width="48" height="48" viewBox="0 0 48 48" fill="none" xmlns="http://www.w3.org/2000/svg">
<rect width="48" height="48" fill="white"/>
<circle cx="24" cy="25" r="7" stroke="#FF498B" stroke-width="2"/>
<path d="M39 19C39.5523 19 40 18.5523 40 18C40 17.4477 39.5523 17 39 17L39 19ZM34 17C33.4477 17 33 17.4477 33 18C33 18.5523 33.4477 19 34 19L34 17ZM39 17L34 17L34 19L39 19L39 17Z" fill="#152C5B"/>
<mask id="path-4-inside-1_17:0" fill="white">
<path fill-rule="evenodd" clip-rule="evenodd" d="M19.8422 8C18.9393 8 18.1484 8.60492 17.912 9.4763L17.0972 12.4792H11C6.58172 12.4792 3 16.0609 3 20.4792V30.4583C3 34.8766 6.58172 38.4583 11 38.4583H37C41.4183 38.4583 45 34.8766 45 30.4583V20.4792C45 16.0609 41.4183 12.4792 37 12.4792H30.9028L30.088 9.4763C29.8516 8.60492 29.0607 8 28.1578 8H19.8422Z"/>
</mask>
<path d="M17.912 9.4763L15.9817 8.9526V8.9526L17.912 9.4763ZM17.0972 12.4792V14.4792H18.6269L19.0274 13.0029L17.0972 12.4792ZM30.9028 12.4792L28.9726 13.0029L29.3731 14.4792H30.9028V12.4792ZM30.088 9.4763L28.1578 10L28.1578 10L30.088 9.4763ZM19.8422 10V10V6C18.0364 6 16.4546 7.20985 15.9817 8.9526L19.8422 10ZM19.0274 13.0029L19.8422 10L15.9817 8.9526L15.167 11.9555L19.0274 13.0029ZM11 14.4792H17.0972V10.4792H11V14.4792ZM5 20.4792C5 17.1655 7.68629 14.4792 11 14.4792V10.4792C5.47715 10.4792 1 14.9563 1 20.4792H5ZM5 30.4583V20.4792H1V30.4583H5ZM11 36.4583C7.68629 36.4583 5 33.772 5 30.4583H1C1 35.9812 5.47715 40.4583 11 40.4583V36.4583ZM37 36.4583H11V40.4583H37V36.4583ZM43 30.4583C43 33.772 40.3137 36.4583 37 36.4583V40.4583C42.5229 40.4583 47 35.9812 47 30.4583H43ZM43 20.4792V30.4583H47V20.4792H43ZM37 14.4792C40.3137 14.4792 43 17.1655 43 20.4792H47C47 14.9563 42.5229 10.4792 37 10.4792V14.4792ZM30.9028 14.4792H37V10.4792H30.9028V14.4792ZM28.1578 10L28.9726 13.0029L32.833 11.9555L32.0183 8.95259L28.1578 10ZM28.1578 10L28.1578 10L32.0183 8.9526C31.5454 7.20985 29.9636 6 28.1578 6V10ZM19.8422 10H28.1578V6H19.8422V10Z" fill="#152C5B" mask="url(#path-4-inside-1_17:0)"/>
</svg>
